<svg width="24" height="24" viewBox="0 0 24 24" fill="none" xmlns="http://www.w3.org/2000/svg">
<path d="M6.19 21.854C6.07788 21.9347 5.94566 21.9828 5.80793 21.9931C5.67019 22.0034 5.53229 21.9755 5.40942 21.9124C5.28655 21.8493 5.18349 21.7535 5.1116 21.6356C5.03971 21.5176 5.00178 21.3821 5.002 21.244V6.25C5.002 5.38805 5.34441 4.5614 5.9539 3.9519C6.5634 3.34241 7.39005 3 8.252 3H15.751C16.6126 3.00027 17.4388 3.34265 18.0481 3.9519C18.6573 4.56115 18.9997 5.38739 19 6.249V21.245C19 21.383 18.962 21.5184 18.89 21.6362C18.818 21.754 18.715 21.8496 18.5921 21.9126C18.4693 21.9756 18.3315 22.0034 18.1938 21.9931C18.0562 21.9827 17.9241 21.9346 17.812 21.854L12.001 17.673L6.189 21.853L6.19 21.854ZM17.5 6.249C17.5 5.78487 17.3156 5.33975 16.9874 5.01156C16.6592 4.68337 16.2141 4.499 15.75 4.499H8.253C7.78887 4.499 7.34375 4.68337 7.01556 5.01156C6.68737 5.33975 6.503 5.78487 6.503 6.249V19.781L11.565 16.141C11.6926 16.0492 11.8458 15.9998 12.003 15.9998C12.1602 15.9998 12.3134 16.0492 12.441 16.141L17.501 19.781V6.25L17.5 6.249Z" fill="#536471"/>
</svg>
