<svg width="24" height="24" viewBox="0 0 24 24" fill="none" xmlns="http://www.w3.org/2000/svg">
<path d="M12.82 5.58L12 6.402L11.176 5.578C10.1679 4.57004 8.8007 4.00383 7.37515 4.00393C5.94959 4.00402 4.58245 4.57041 3.5745 5.5785C2.56654 6.58659 2.00033 7.9538 2.00043 9.37935C2.00052 10.8049 2.56691 12.172 3.575 13.18L11.47 21.075C11.6106 21.2155 11.8012 21.2943 12 21.2943C12.1988 21.2943 12.3894 21.2155 12.53 21.075L20.432 13.178C21.4389 12.1698 22.0044 10.8032 22.0042 9.37829C22.004 7.95342 21.4382 6.58691 20.431 5.579C19.9314 5.07904 19.3381 4.68243 18.6852 4.41184C18.0322 4.14124 17.3323 4.00197 16.6255 4.00197C15.9187 4.00197 15.2188 4.14124 14.5658 4.41184C13.9129 4.68243 13.3196 5.07904 12.82 5.579V5.58ZM19.368 12.12L12 19.485L4.635 12.12C4.27203 11.7609 3.98362 11.3335 3.78633 10.8626C3.58905 10.3916 3.48679 9.88634 3.48544 9.37573C3.48408 8.86513 3.58365 8.35929 3.77842 7.88729C3.97319 7.41529 4.25933 6.98644 4.62038 6.62538C4.98144 6.26433 5.41029 5.97819 5.88229 5.78342C6.35429 5.58865 6.86012 5.48908 7.37073 5.49044C7.88134 5.49179 8.38664 5.59405 8.85759 5.79133C9.32855 5.98862 9.75587 6.27703 10.115 6.64L11.473 7.997C11.5437 8.06774 11.6277 8.12363 11.7203 8.1614C11.8129 8.19917 11.9121 8.21805 12.012 8.21693C12.112 8.21581 12.2107 8.19472 12.3024 8.15489C12.3941 8.11506 12.4769 8.0573 12.546 7.985L13.88 6.64C14.6153 5.95557 15.5874 5.58301 16.5918 5.60068C17.5962 5.61836 18.5546 6.02489 19.2654 6.73476C19.9761 7.44463 20.3839 8.4025 20.4029 9.40687C20.4218 10.4112 20.0505 11.3838 19.367 12.12H19.368Z" fill="#536471"/>
</svg>
