<svg width="48" height="48" viewBox="0 0 48 48" fill="none" xmlns="http://www.w3.org/2000/svg">
<ellipse cx="23.908" cy="24" rx="23.908" ry="24" fill="#66CB9F"/>
<path d="M25.954 15H13.954L12.954 15C12.954 14.4477 13.4017 14 13.954 14H25.954C26.5063 14 26.954 14.4477 26.954 15H25.954Z" fill="white"/>
<path fill-rule="evenodd" clip-rule="evenodd" d="M34.3678 19.5H13.4483V31.5H34.3678V19.5ZM13.4483 18C12.623 18 11.954 18.6716 11.954 19.5V31.5C11.954 32.3284 12.623 33 13.4483 33H34.3678C35.1931 33 35.8621 32.3284 35.8621 31.5V19.5C35.8621 18.6716 35.1931 18 34.3678 18H13.4483Z" fill="white"/>
<path d="M31.3793 19.5C31.3793 21.1569 32.7173 22.5 34.3678 22.5V19.5H31.3793Z" fill="white"/>
<path d="M16.4368 19.5C16.4368 21.1569 15.0988 22.5 13.4483 22.5V19.5H16.4368Z" fill="white"/>
<path d="M31.3793 31.5C31.3793 29.8431 32.7173 28.5 34.3678 28.5V31.5H31.3793Z" fill="white"/>
<path d="M16.4368 31.5C16.4368 29.8431 15.0988 28.5 13.4483 28.5V31.5H16.4368Z" fill="white"/>
<path d="M26.8965 25.5C26.8965 27.1569 25.5585 28.5 23.908 28.5C22.2575 28.5 20.9195 27.1569 20.9195 25.5C20.9195 23.8431 22.2575 22.5 23.908 22.5C25.5585 22.5 26.8965 23.8431 26.8965 25.5Z" fill="white"/>
</svg>
