<svg width="85" height="58" viewBox="0 0 85 58" fill="none" xmlns="http://www.w3.org/2000/svg">
<path d="M77 0H8C3.58172 0 0 3.58172 0 8V50C0 54.4183 3.58172 58 8 58H77C81.4183 58 85 54.4183 85 50V8C85 3.58172 81.4183 0 77 0Z" fill="#101225"/>
<path d="M66 50C68.7614 50 71 47.7614 71 45C71 42.2386 68.7614 40 66 40C63.2386 40 61 42.2386 61 45C61 47.7614 63.2386 50 66 50Z" fill="#FBB734"/>
<path d="M71 50C73.7614 50 76 47.7614 76 45C76 42.2386 73.7614 40 71 40C68.2386 40 66 42.2386 66 45C66 47.7614 68.2386 50 71 50Z" fill="#FF5E5E"/>
<path d="M10.7379 10.3636V12.7109C10.7379 13.2045 10.397 13.5597 9.84305 13.5597C9.29085 13.5597 8.94816 13.2045 8.94816 12.7109V10.3636H8.39951V12.7553C8.39951 13.5188 8.97125 14.0604 9.84305 14.0604C10.7148 14.0604 11.2884 13.5188 11.2884 12.7553V10.3636H10.7379ZM12.5743 12.3807C12.5743 11.9457 12.8406 11.6971 13.21 11.6971C13.5704 11.6971 13.7888 11.9332 13.7888 12.3292V14H14.3197V12.2653C14.3197 11.5906 13.9486 11.2372 13.3911 11.2372C12.9809 11.2372 12.7128 11.4272 12.5867 11.7166H12.553V11.2727H12.0434V14H12.5743V12.3807ZM15.0317 14H15.5626V11.2727H15.0317V14ZM15.2998 10.8519C15.4827 10.8519 15.6354 10.7099 15.6354 10.5359C15.6354 10.3619 15.4827 10.218 15.2998 10.218C15.1151 10.218 14.9642 10.3619 14.9642 10.5359C14.9642 10.7099 15.1151 10.8519 15.2998 10.8519ZM17.5499 11.2727H16.9906V10.6193H16.4597V11.2727H16.0602V11.6989H16.4597V13.3093C16.4579 13.8047 16.8361 14.0444 17.2551 14.0355C17.4238 14.0337 17.5375 14.0018 17.5996 13.9787L17.5037 13.5401C17.4682 13.5472 17.4025 13.5632 17.3173 13.5632C17.1451 13.5632 16.9906 13.5064 16.9906 13.1992V11.6989H17.5499V11.2727ZM19.2833 14.055C19.8781 14.055 20.2989 13.7621 20.4197 13.3182L19.9172 13.2276C19.8213 13.4851 19.5905 13.6165 19.2886 13.6165C18.8341 13.6165 18.5287 13.3217 18.5145 12.7962H20.4534V12.608C20.4534 11.6225 19.8639 11.2372 19.246 11.2372C18.4861 11.2372 17.9854 11.8161 17.9854 12.6541C17.9854 13.5011 18.479 14.055 19.2833 14.055ZM18.5162 12.3984C18.5376 12.0114 18.8181 11.6758 19.2496 11.6758C19.6615 11.6758 19.9314 11.9812 19.9331 12.3984H18.5162ZM22.0634 14.0533C22.5605 14.0533 22.7559 13.7496 22.8517 13.5756H22.8961V14H23.4146V10.3636H22.8837V11.7148H22.8517C22.7559 11.5462 22.5748 11.2372 22.0669 11.2372C21.4082 11.2372 20.9235 11.7575 20.9235 12.6417C20.9235 13.5241 21.4011 14.0533 22.0634 14.0533ZM22.1806 13.6005C21.7065 13.6005 21.4597 13.1832 21.4597 12.6364C21.4597 12.0948 21.7012 11.6882 22.1806 11.6882C22.644 11.6882 22.8926 12.0664 22.8926 12.6364C22.8926 13.2099 22.6387 13.6005 22.1806 13.6005ZM25.5382 14H26.932C27.7772 14 28.1589 13.5792 28.1589 13.0217C28.1589 12.4588 27.7647 12.141 27.4043 12.1214V12.0859C27.7381 12.0007 28.0169 11.7734 28.0169 11.3189C28.0169 10.7809 27.644 10.3636 26.8699 10.3636H25.5382V14ZM26.0868 13.5295V12.3647H26.8983C27.3386 12.3647 27.6138 12.6488 27.6138 12.995C27.6138 13.3004 27.4061 13.5295 26.8787 13.5295H26.0868ZM26.0868 11.9368V10.8306H26.8361C27.2711 10.8306 27.4789 11.0597 27.4789 11.3615C27.4789 11.7131 27.1912 11.9368 26.8219 11.9368H26.0868ZM29.788 14.0533C30.2852 14.0533 30.4805 13.7496 30.5763 13.5756H30.6207V14H31.1392V11.2727H30.6083V11.7148H30.5763C30.4805 11.5462 30.2994 11.2372 29.7915 11.2372C29.1328 11.2372 28.6481 11.7575 28.6481 12.6417C28.6481 13.5241 29.1257 14.0533 29.788 14.0533ZM29.9052 13.6005C29.4311 13.6005 29.1843 13.1832 29.1843 12.6364C29.1843 12.0948 29.4258 11.6882 29.9052 11.6882C30.3686 11.6882 30.6172 12.0664 30.6172 12.6364C30.6172 13.2099 30.3633 13.6005 29.9052 13.6005ZM32.4278 12.3807C32.4278 11.9457 32.6942 11.6971 33.0635 11.6971C33.4239 11.6971 33.6423 11.9332 33.6423 12.3292V14H34.1732V12.2653C34.1732 11.5906 33.8021 11.2372 33.2446 11.2372C32.8344 11.2372 32.5663 11.4272 32.4403 11.7166H32.4065V11.2727H31.8969V14H32.4278V12.3807ZM34.8852 14H35.4161V13.0323L35.6807 12.7678L36.6075 14H37.2591L36.0802 12.4428L37.1846 11.2727H36.5489L35.4623 12.4268H35.4161V10.3636H34.8852V14Z" fill="white"/>
<path d="M74.4364 14.4546H74.8555L74.859 14.0445C75.6278 13.9859 76.0735 13.5775 76.0753 12.9614C76.0735 12.3559 75.6172 12.0345 74.9851 11.8925L74.8803 11.8676L74.8874 10.9799C75.1236 11.0349 75.2674 11.1858 75.2887 11.4095H76.0256C76.0167 10.8218 75.5781 10.401 74.8945 10.3264L74.8981 9.90918H74.479L74.4755 10.3229C73.7812 10.3904 73.2912 10.8094 73.2947 11.4149C73.293 11.9511 73.6712 12.2583 74.2855 12.4056L74.456 12.4483L74.4471 13.3875C74.1577 13.3325 73.9624 13.1549 73.9428 12.8584H73.1989C73.2166 13.5757 73.6871 13.977 74.44 14.0427L74.4364 14.4546ZM74.8661 13.3875L74.8732 12.5583C75.1484 12.6453 75.2976 12.7572 75.2994 12.9596C75.2976 13.1745 75.1342 13.3343 74.8661 13.3875ZM74.4613 11.7593C74.2393 11.683 74.0795 11.5676 74.0831 11.3634C74.0831 11.1734 74.218 11.026 74.4684 10.9745L74.4613 11.7593Z" fill="white"/>
<path d="M9.2397 47.3609H10.9851V48.0001H11.7077V47.3609H12.1712V46.7448H11.7077V45.7274H11.0064V46.7448H10.0121V46.7164L11.3384 44.3637H10.598L9.2397 46.7554V47.3609ZM12.6266 46.972C12.6479 47.6184 13.2108 48.0498 14.0098 48.0498C14.8105 48.0498 15.4107 47.6113 15.4107 46.9649C15.4107 46.4802 15.0733 46.0079 14.3081 45.9333V45.9049L15.2846 44.9177V44.3637H12.8095V44.9923H14.34V45.0171L13.5339 45.8552V46.3897H13.9263C14.3773 46.3897 14.6099 46.6134 14.6099 46.9135C14.6099 47.2242 14.3631 47.4159 14.0115 47.4159C13.6813 47.4159 13.4221 47.2455 13.4025 46.972H12.6266ZM17.2928 48.0498C18.1025 48.0498 18.6529 47.5225 18.6511 46.7874C18.6529 46.0914 18.1664 45.5907 17.5112 45.5907C17.1916 45.5907 16.9164 45.7238 16.7885 45.9032H16.7672L16.8613 44.9923H18.4505V44.3637H16.2275L16.0552 46.2813L16.7388 46.4039C16.8507 46.2529 17.0673 46.1588 17.2821 46.1588C17.6479 46.1606 17.9107 46.4252 17.9107 46.8069C17.9107 47.1851 17.6532 47.4461 17.2928 47.4461C16.9874 47.4461 16.7406 47.2544 16.7228 46.972H15.9771C15.9913 47.6006 16.54 48.0498 17.2928 48.0498ZM19.1873 48.0001H21.7797V47.3715H20.2527V47.3467L20.7836 46.8264C21.5311 46.1446 21.7317 45.8037 21.7317 45.39C21.7317 44.7597 21.2168 44.314 20.4373 44.314C19.6738 44.314 19.15 44.7703 19.1518 45.4841H19.8816C19.8798 45.1361 20.1 44.923 20.432 44.923C20.7516 44.923 20.9895 45.1219 20.9895 45.4415C20.9895 45.7309 20.812 45.9298 20.4817 46.2476L19.1873 47.4461V48.0001Z" fill="white"/>
<path d="M19 20H10C8.89543 20 8 20.8954 8 22V29C8 30.1046 8.89543 31 10 31H19C20.1046 31 21 30.1046 21 29V22C21 20.8954 20.1046 20 19 20Z" fill="#EBF2FA"/>
</svg>
