<svg width="85" height="58" viewBox="0 0 85 58" fill="none" xmlns="http://www.w3.org/2000/svg">
<path d="M77 0H8C3.58172 0 0 3.58172 0 8V50C0 54.4183 3.58172 58 8 58H77C81.4183 58 85 54.4183 85 50V8C85 3.58172 81.4183 0 77 0Z" fill="#4C6FFF"/>
<path d="M61.8333 47.8843H59.8082L61.0749 40.1401H63.0999L61.8333 47.8843Z" fill="white"/>
<path d="M69.1747 40.3297C68.7753 40.173 68.1417 40 67.3583 40C65.3584 40 63.9501 41.0545 63.9414 42.5621C63.9248 43.6744 64.9497 44.2921 65.7163 44.663C66.4998 45.042 66.7662 45.2894 66.7662 45.6272C66.7582 46.146 66.133 46.3851 65.55 46.3851C64.7414 46.3851 64.3082 46.2618 63.6498 45.9732L63.3832 45.8494L63.0998 47.5878C63.5747 47.8018 64.4498 47.9917 65.3584 48C67.4833 48 68.8668 46.9618 68.8832 45.3553C68.8912 44.4737 68.35 43.7982 67.1832 43.2462C66.4749 42.8919 66.0411 42.6529 66.0411 42.2904C66.0494 41.9608 66.408 41.6232 67.2076 41.6232C67.866 41.6067 68.3497 41.7632 68.7162 41.9197L68.8993 42.002L69.1747 40.3297Z" fill="white"/>
<path d="M71.8665 45.1409C72.0332 44.696 72.675 42.9741 72.675 42.9741C72.6666 42.9906 72.8415 42.521 72.9415 42.2327L73.083 42.9C73.083 42.9 73.4665 44.7537 73.5498 45.1409C73.2333 45.1409 72.2665 45.1409 71.8665 45.1409ZM74.3663 40.1401H72.7998C72.3167 40.1401 71.9497 40.2801 71.7413 40.7827L68.7332 47.8842H70.8581C70.8581 47.8842 71.208 46.9284 71.2832 46.7226C71.5163 46.7226 73.5834 46.7226 73.8833 46.7226C73.9415 46.9945 74.125 47.8842 74.125 47.8842H76.0001L74.3663 40.1401Z" fill="white"/>
<path d="M58.1168 40.1401L56.1335 45.4209L55.9167 44.3499C55.5501 43.1141 54.4001 41.7715 53.1168 41.1038L54.9334 47.8761H57.075L60.2582 40.1401H58.1168Z" fill="white"/>
<path d="M54.2916 40.1401H51.0333L51 40.2966C53.5417 40.9393 55.225 42.4883 55.9166 44.3503L55.2083 40.7911C55.0917 40.2965 54.7333 40.1565 54.2916 40.1401Z" fill="#F3F5F8"/>
<path d="M10.7379 10.3636V12.7109C10.7379 13.2045 10.397 13.5597 9.84304 13.5597C9.29084 13.5597 8.94815 13.2045 8.94815 12.7109V10.3636H8.3995V12.7553C8.3995 13.5188 8.97124 14.0604 9.84304 14.0604C10.7148 14.0604 11.2884 13.5188 11.2884 12.7553V10.3636H10.7379ZM12.5743 12.3807C12.5743 11.9457 12.8406 11.6971 13.21 11.6971C13.5704 11.6971 13.7888 11.9332 13.7888 12.3292V14H14.3197V12.2653C14.3197 11.5906 13.9486 11.2372 13.3911 11.2372C12.9809 11.2372 12.7128 11.4272 12.5867 11.7166H12.553V11.2727H12.0434V14H12.5743V12.3807ZM15.0317 14H15.5626V11.2727H15.0317V14ZM15.2998 10.8519C15.4827 10.8519 15.6354 10.7099 15.6354 10.5359C15.6354 10.3619 15.4827 10.218 15.2998 10.218C15.1151 10.218 14.9642 10.3619 14.9642 10.5359C14.9642 10.7099 15.1151 10.8519 15.2998 10.8519ZM17.5499 11.2727H16.9906V10.6193H16.4597V11.2727H16.0602V11.6989H16.4597V13.3093C16.4579 13.8047 16.8361 14.0444 17.2551 14.0355C17.4238 14.0337 17.5375 14.0018 17.5996 13.9787L17.5037 13.5401C17.4682 13.5472 17.4025 13.5632 17.3173 13.5632C17.1451 13.5632 16.9906 13.5064 16.9906 13.1992V11.6989H17.5499V11.2727ZM19.2833 14.055C19.8781 14.055 20.2989 13.7621 20.4197 13.3182L19.9172 13.2276C19.8213 13.4851 19.5905 13.6165 19.2886 13.6165C18.8341 13.6165 18.5287 13.3217 18.5145 12.7962H20.4534V12.608C20.4534 11.6225 19.8639 11.2372 19.246 11.2372C18.4861 11.2372 17.9854 11.8161 17.9854 12.6541C17.9854 13.5011 18.479 14.055 19.2833 14.055ZM18.5162 12.3984C18.5376 12.0114 18.8181 11.6758 19.2496 11.6758C19.6615 11.6758 19.9314 11.9812 19.9331 12.3984H18.5162ZM22.0634 14.0533C22.5605 14.0533 22.7559 13.7496 22.8517 13.5756H22.8961V14H23.4146V10.3636H22.8837V11.7148H22.8517C22.7559 11.5462 22.5748 11.2372 22.0669 11.2372C21.4082 11.2372 20.9235 11.7575 20.9235 12.6417C20.9235 13.5241 21.4011 14.0533 22.0634 14.0533ZM22.1806 13.6005C21.7065 13.6005 21.4597 13.1832 21.4597 12.6364C21.4597 12.0948 21.7012 11.6882 22.1806 11.6882C22.644 11.6882 22.8926 12.0664 22.8926 12.6364C22.8926 13.2099 22.6387 13.6005 22.1806 13.6005ZM25.5382 14H26.932C27.7772 14 28.1589 13.5792 28.1589 13.0217C28.1589 12.4588 27.7647 12.141 27.4043 12.1214V12.0859C27.7381 12.0007 28.0169 11.7734 28.0169 11.3189C28.0169 10.7809 27.644 10.3636 26.8699 10.3636H25.5382V14ZM26.0868 13.5295V12.3647H26.8983C27.3386 12.3647 27.6138 12.6488 27.6138 12.995C27.6138 13.3004 27.4061 13.5295 26.8787 13.5295H26.0868ZM26.0868 11.9368V10.8306H26.8361C27.2711 10.8306 27.4789 11.0597 27.4789 11.3615C27.4789 11.7131 27.1912 11.9368 26.8219 11.9368H26.0868ZM29.788 14.0533C30.2852 14.0533 30.4805 13.7496 30.5763 13.5756H30.6207V14H31.1392V11.2727H30.6083V11.7148H30.5763C30.4805 11.5462 30.2994 11.2372 29.7915 11.2372C29.1328 11.2372 28.6481 11.7575 28.6481 12.6417C28.6481 13.5241 29.1257 14.0533 29.788 14.0533ZM29.9052 13.6005C29.4311 13.6005 29.1843 13.1832 29.1843 12.6364C29.1843 12.0948 29.4258 11.6882 29.9052 11.6882C30.3686 11.6882 30.6172 12.0664 30.6172 12.6364C30.6172 13.2099 30.3633 13.6005 29.9052 13.6005ZM32.4278 12.3807C32.4278 11.9457 32.6942 11.6971 33.0635 11.6971C33.4239 11.6971 33.6423 11.9332 33.6423 12.3292V14H34.1732V12.2653C34.1732 11.5906 33.8021 11.2372 33.2446 11.2372C32.8344 11.2372 32.5663 11.4272 32.4403 11.7166H32.4065V11.2727H31.8969V14H32.4278V12.3807ZM34.8852 14H35.4161V13.0323L35.6807 12.7678L36.6075 14H37.2591L36.0802 12.4428L37.1846 11.2727H36.5489L35.4623 12.4268H35.4161V10.3636H34.8852V14Z" fill="white"/>
<path d="M74.4453 14.4545H74.7791L74.7809 14.055C75.532 14 75.9616 13.5703 75.9616 12.995C75.9616 12.3398 75.3775 12.0859 74.9158 11.9723L74.7862 11.9386L74.7898 10.7987C75.1218 10.843 75.3491 11.0277 75.3828 11.3189H75.9119C75.8977 10.7773 75.4503 10.3725 74.7915 10.3192L74.7933 9.90909H74.4595L74.4577 10.3228C73.8203 10.3867 73.3533 10.7844 73.3533 11.358C73.3533 11.864 73.7156 12.1605 74.2997 12.3185L74.4524 12.3594L74.4489 13.5685C74.1026 13.5259 73.8345 13.3377 73.8061 12.995H73.2557C73.2894 13.6076 73.7315 14.0018 74.4471 14.055L74.4453 14.4545ZM74.7827 13.5685L74.7862 12.4517C75.1467 12.5511 75.4183 12.6825 75.4183 12.9897C75.4183 13.3004 75.1591 13.5188 74.7827 13.5685ZM74.4542 11.8498C74.1896 11.7717 73.8984 11.6314 73.9002 11.326C73.9002 11.0597 74.1115 10.8519 74.456 10.8004L74.4542 11.8498Z" fill="white"/>
<path d="M9.2397 47.3608H10.9851V48H11.7077V47.3608H12.1712V46.7447H11.7077V45.7273H11.0064V46.7447H10.0121V46.7163L11.3384 44.3636H10.598L9.2397 46.7553V47.3608ZM12.6266 46.9719C12.6479 47.6183 13.2108 48.0497 14.0098 48.0497C14.8105 48.0497 15.4107 47.6112 15.4107 46.9648C15.4107 46.4801 15.0733 46.0078 14.3081 45.9332V45.9048L15.2846 44.9176V44.3636H12.8095V44.9922H14.34V45.017L13.5339 45.8551V46.3896H13.9263C14.3773 46.3896 14.6099 46.6133 14.6099 46.9134C14.6099 47.2241 14.3631 47.4158 14.0115 47.4158C13.6813 47.4158 13.4221 47.2454 13.4025 46.9719H12.6266ZM17.2928 48.0497C18.1025 48.0497 18.6529 47.5224 18.6511 46.7873C18.6529 46.0913 18.1664 45.5906 17.5112 45.5906C17.1916 45.5906 16.9164 45.7237 16.7885 45.9031H16.7672L16.8613 44.9922H18.4505V44.3636H16.2275L16.0552 46.2812L16.7388 46.4038C16.8507 46.2528 17.0673 46.1587 17.2821 46.1587C17.6479 46.1605 17.9107 46.4251 17.9107 46.8068C17.9107 47.185 17.6532 47.446 17.2928 47.446C16.9874 47.446 16.7406 47.2543 16.7228 46.9719H15.9771C15.9913 47.6005 16.54 48.0497 17.2928 48.0497ZM19.1873 48H21.7797V47.3714H20.2527V47.3466L20.7836 46.8263C21.5311 46.1445 21.7317 45.8036 21.7317 45.3899C21.7317 44.7596 21.2168 44.3139 20.4373 44.3139C19.6738 44.3139 19.15 44.7702 19.1518 45.484H19.8816C19.8798 45.136 20.1 44.9229 20.432 44.9229C20.7516 44.9229 20.9895 45.1218 20.9895 45.4414C20.9895 45.7308 20.812 45.9297 20.4817 46.2475L19.1873 47.446V48Z" fill="white"/>
<path d="M19 20H10C8.89543 20 8 20.8954 8 22V29C8 30.1046 8.89543 31 10 31H19C20.1046 31 21 30.1046 21 29V22C21 20.8954 20.1046 20 19 20Z" fill="#EBF2FA"/>
</svg>
